<svg width="100" height="20" viewBox="0 0 100 20" fill="none" xmlns="http://www.w3.org/2000/svg">
<path d="M0 2.7434C0.959929 2.81887 1.79986 2.86415 2.5198 2.87925C3.25574 2.89434 3.87969 2.90188 4.39165 2.90188C4.9836 2.90188 5.4956 2.88679 5.92755 2.8566C6.37547 2.81132 6.95943 2.75094 7.67934 2.67547C8.28733 2.6 9.07124 2.50188 10.0312 2.38113C10.9911 2.24528 12.1591 2.0717 13.5349 1.86038C13.359 2.11698 13.2069 2.38868 13.0789 2.67547C12.967 2.94717 12.8709 3.19623 12.791 3.42264C12.711 3.69433 12.6389 3.95849 12.5751 4.2151C12.527 4.50188 12.4711 4.8566 12.4071 5.27924C12.343 5.6415 12.2631 6.10188 12.167 6.66037C12.087 7.20376 11.983 7.85282 11.855 8.60753C11.3751 7.43018 10.8871 6.52452 10.3912 5.89056C9.91122 5.2566 9.46319 4.78868 9.04733 4.48679C8.56736 4.13962 8.1114 3.94339 7.67934 3.89811C7.05539 3.89811 6.54346 4.01132 6.14347 4.23773C5.74358 4.46414 5.41557 4.75849 5.15959 5.12075C4.91961 5.46792 4.73562 5.85282 4.60763 6.27546C4.47965 6.68301 4.39165 7.08301 4.34365 7.47546C4.29565 7.85282 4.26366 8.19243 4.24767 8.49432C4.23166 8.78112 4.21567 8.97735 4.19967 9.08301C4.75962 9.05281 5.23158 9.01508 5.61557 8.96979C5.99948 8.92452 6.30353 8.87923 6.52749 8.83395C6.79948 8.77357 7.0154 8.71319 7.17546 8.65281C7.4154 8.53206 7.65544 8.38866 7.89537 8.22263C8.10336 8.07168 8.31939 7.89056 8.54334 7.67924C8.78328 7.46791 8.99126 7.21131 9.1673 6.90943C9.07124 7.45282 8.98333 7.90565 8.90324 8.26791C8.83935 8.63018 8.78328 8.91696 8.73536 9.12829C8.67135 9.38488 8.63136 9.58111 8.61528 9.71697C8.58333 9.85282 8.54334 10.0415 8.49531 10.283C8.44728 10.4943 8.39132 10.766 8.32732 11.0981C8.26331 11.4301 8.19138 11.8453 8.1114 12.3434C7.91939 12.0264 7.71933 11.7698 7.51146 11.5736C7.30347 11.3623 7.11146 11.1962 6.93542 11.0754C6.72743 10.9396 6.52749 10.834 6.33548 10.7584C6.12749 10.6981 5.90353 10.6378 5.6636 10.5774C5.45562 10.5321 5.20759 10.4867 4.91961 10.4415C4.64763 10.3811 4.35165 10.3282 4.03168 10.283C4.06368 11.0981 4.11167 11.7999 4.17567 12.3886C4.23966 12.9622 4.29565 13.4452 4.34365 13.8377C4.40764 14.2905 4.47165 14.6679 4.53564 14.9697C4.61563 15.2717 4.74363 15.5961 4.91961 15.9434C5.06359 16.2452 5.26358 16.5925 5.51951 16.9849C5.7915 17.3622 6.13553 17.7697 6.55151 18.2075C6.23149 18.132 5.89549 18.0792 5.54352 18.049C5.19159 18.0189 4.87961 17.9962 4.60763 17.9811C4.27166 17.966 3.95168 17.966 3.64772 17.9811C3.32774 17.9962 2.97576 18.0263 2.59179 18.0717C2.27181 18.1018 1.90385 18.1471 1.48788 18.2075C1.07192 18.2679 0.631955 18.3359 0.167986 18.4113C0.439964 18.1547 0.663946 17.8981 0.839929 17.6415C1.01592 17.3849 1.14391 17.1585 1.2239 16.9623C1.31989 16.7358 1.38389 16.5169 1.41589 16.3056C1.43188 16.1244 1.43988 15.7321 1.43988 15.1282C1.43988 14.5094 1.43188 13.7925 1.41589 12.9773C1.39989 12.1472 1.37589 11.2716 1.3439 10.3509C1.3119 9.43017 1.27989 8.5698 1.2479 7.7698C1.2159 6.95471 1.17591 6.26037 1.12791 5.68679C1.09591 5.1132 1.05591 4.76603 1.00792 4.64528C0.943922 4.49434 0.871932 4.32076 0.791932 4.12453C0.663946 3.80755 0.399965 3.34717 0 2.7434ZM13.8709 9.19621C13.9509 9.10564 13.9989 8.93961 14.0149 8.6981C14.0469 8.44149 14.1109 8.15471 14.2069 7.83773C14.3189 7.52074 14.5029 7.18867 14.7588 6.8415C15.0148 6.49433 15.4308 6.1698 16.0067 5.86791C16.5667 5.56603 17.1106 5.3849 17.6386 5.32452C18.1665 5.26415 18.6705 5.28678 19.1505 5.39244C19.6305 5.4981 20.0784 5.66415 20.4944 5.89056C20.9263 6.11697 21.3183 6.36603 21.6702 6.63772C21.9103 6.81886 22.1022 7.08301 22.2463 7.43018C22.3903 7.76225 22.5022 8.13961 22.5822 8.56225C22.6622 8.98489 22.7182 9.43017 22.7502 9.89809C22.7982 10.3509 22.8301 10.7963 22.8462 11.2339C22.8622 11.6566 22.8702 12.0491 22.8702 12.4113C22.8862 12.7584 22.9182 13.0453 22.9662 13.2717C23.0302 13.6037 23.1421 13.8906 23.3022 14.132C23.4621 14.3585 23.6381 14.5547 23.8301 14.7207C24.0221 14.8716 24.2141 14.9924 24.4061 15.083C24.598 15.1736 24.766 15.2415 24.91 15.2867C25.0061 15.3321 25.094 15.3622 25.1739 15.3774C25.334 15.4378 25.4459 15.4378 25.5099 15.3774C25.414 15.5887 25.326 15.7698 25.246 15.9207C25.166 16.0716 25.102 16.2 25.054 16.3056C24.99 16.4264 24.934 16.5245 24.886 16.5999C24.8381 16.6906 24.782 16.7735 24.718 16.849C24.6701 16.9245 24.6061 17.0075 24.5261 17.0981C24.4461 17.1886 24.366 17.2867 24.286 17.3924C24.078 17.317 23.8781 17.2264 23.6861 17.1208C23.5102 17.0151 23.3501 16.9169 23.2061 16.8264C23.0302 16.7207 22.8702 16.615 22.7261 16.5094C22.5822 16.4037 22.4462 16.2829 22.3182 16.1471C22.2062 16.0263 22.0862 15.8981 21.9582 15.7622C21.8463 15.6264 21.7502 15.4755 21.6702 15.3094C21.5743 15.5056 21.3423 15.7849 20.9743 16.1471C20.6224 16.5094 20.1584 16.8415 19.5825 17.1433C19.0065 17.4302 18.3345 17.6339 17.5666 17.7547C16.8146 17.8754 15.9827 17.7924 15.0708 17.5056C14.6709 17.3849 14.2949 17.2113 13.9429 16.9849C13.591 16.7434 13.2869 16.4566 13.031 16.1244C12.791 15.7924 12.615 15.4151 12.503 14.9924C12.4071 14.5547 12.415 14.0716 12.527 13.5433C12.6389 13.015 12.839 12.5698 13.127 12.2075C13.4149 11.8453 13.7588 11.5509 14.1588 11.3246C14.5588 11.0981 15.0068 10.9245 15.5027 10.8037C15.9988 10.683 16.5107 10.6 17.0386 10.5547C17.4546 10.5396 17.8705 10.5623 18.2865 10.6226C18.6385 10.683 19.0065 10.7963 19.3904 10.9622C19.7745 11.1131 20.1024 11.3471 20.3744 11.6641C20.3584 10.8641 20.3264 10.2301 20.2783 9.76225C20.2464 9.27923 20.2143 8.90942 20.1824 8.65281C20.1184 8.35092 20.0624 8.1396 20.0144 8.01885C19.9344 7.91319 19.8464 7.79244 19.7504 7.65659C19.6705 7.52074 19.5665 7.39999 19.4385 7.29433C19.3105 7.17358 19.1505 7.07546 18.9585 6.99999C18.7665 6.92452 18.5425 6.89433 18.2865 6.90943C18.0145 6.92452 17.7986 6.99244 17.6386 7.1132C17.4786 7.23395 17.3506 7.37735 17.2546 7.54339C17.1746 7.69433 17.1266 7.86037 17.1106 8.04149C17.0947 8.22263 17.1026 8.38112 17.1347 8.51697C17.1666 8.60753 17.2146 8.70564 17.2786 8.8113C17.3426 8.90187 17.4307 8.99998 17.5426 9.10564C17.6546 9.2113 17.8065 9.30187 17.9985 9.37734C17.6306 9.42262 17.3026 9.46036 17.0147 9.49054C16.7267 9.50565 16.4786 9.52828 16.2707 9.55848C16.0307 9.58866 15.8227 9.61131 15.6468 9.6264C15.4708 9.64149 15.2628 9.67168 15.0228 9.71697C14.8149 9.74715 14.5588 9.78489 14.2549 9.83017C13.9509 9.87545 13.5989 9.93588 13.1989 10.0113C13.295 9.90565 13.383 9.80753 13.463 9.71697C13.5429 9.61131 13.6149 9.52074 13.6789 9.44527C13.7429 9.3547 13.8069 9.27168 13.8709 9.19621ZM17.4706 11.8906C17.1827 11.9056 16.8946 11.9735 16.6066 12.0943C16.3187 12.2 16.0627 12.3585 15.8387 12.5698C15.6147 12.766 15.4227 13 15.2628 13.2717C15.1188 13.5283 15.0468 13.815 15.0468 14.132C15.0468 14.449 15.1268 14.7283 15.2868 14.9697C15.4627 15.1962 15.6868 15.3848 15.9587 15.5359C16.2467 15.6868 16.5507 15.7773 16.8707 15.8076C17.2066 15.8377 17.5347 15.8076 17.8546 15.7169C18.1586 15.6113 18.4466 15.4452 18.7186 15.2189C18.9904 14.9773 19.2224 14.7207 19.4145 14.449C19.6065 14.1623 19.7424 13.883 19.8224 13.6113C19.9024 13.3245 19.9104 13.0905 19.8464 12.9094C19.7184 12.517 19.4304 12.2453 18.9825 12.0943C18.5345 11.9283 18.0306 11.8603 17.4706 11.8906ZM25.27 2.4717C25.6379 2.56227 25.9739 2.63019 26.2779 2.67547C26.5979 2.70566 26.8699 2.7283 27.0938 2.7434C27.3658 2.75849 27.6138 2.76604 27.8378 2.76604C28.0617 2.76604 28.3418 2.75094 28.6777 2.72076C29.2696 2.67547 30.1096 2.56227 31.1975 2.38113C31.0216 2.50188 30.8536 2.62264 30.6936 2.7434C30.5496 2.84905 30.4216 2.95471 30.3096 3.06037L29.9496 3.4C29.7416 3.6717 29.5336 4.13207 29.3256 4.78113C29.1497 5.33961 28.9577 6.12452 28.7497 7.13584C28.5577 8.14716 28.3817 9.49054 28.2218 11.1661C29.0057 10.4415 29.7416 9.89809 30.4295 9.53583C31.1335 9.15847 31.7495 8.88678 32.2774 8.72074C32.9014 8.53961 33.4694 8.44149 33.9813 8.4264C34.6373 8.47169 35.2052 8.59998 35.6851 8.8113C36.1811 9.00753 36.5971 9.24904 36.9331 9.53583C37.285 9.80753 37.565 10.0943 37.7729 10.3962C37.997 10.683 38.165 10.9396 38.2769 11.1661C38.3409 11.317 38.389 11.5962 38.4209 12.0038C38.4689 12.3962 38.477 12.8491 38.4449 13.3623C38.413 13.8754 38.325 14.4189 38.181 14.9924C38.053 15.5509 37.8369 16.0716 37.533 16.5546C37.245 17.0226 36.861 17.4151 36.3812 17.732C35.9171 18.049 35.3332 18.2226 34.6292 18.2528C33.8133 18.2528 33.0213 18.1622 32.2534 17.9811C31.5975 17.8301 30.9016 17.566 30.1656 17.1886C29.4457 16.7962 28.8297 16.2377 28.3177 15.5132C28.3177 15.6943 28.3177 15.8754 28.3177 16.0566C28.3177 16.2226 28.3258 16.366 28.3418 16.4868C28.3577 16.6527 28.3737 16.7962 28.3898 16.9169C28.4058 17.0528 28.4457 17.1962 28.5098 17.3471C28.5577 17.4679 28.6297 17.6188 28.7257 17.8C28.8377 17.966 28.9817 18.132 29.1577 18.298C28.9817 18.283 28.8058 18.2755 28.6297 18.2755C28.4537 18.2603 28.2778 18.2603 28.1017 18.2755C27.9098 18.2905 27.7178 18.3056 27.5258 18.3207C27.3338 18.3359 27.1338 18.3584 26.9258 18.3887C26.7499 18.4188 26.5419 18.4565 26.3019 18.5018C26.062 18.5472 25.814 18.6 25.558 18.6603C25.606 18.5245 25.646 18.3283 25.6779 18.0717C25.71 17.8 25.7419 17.5056 25.774 17.1886C25.8219 16.8566 25.854 16.5094 25.8699 16.1471C25.9019 15.7849 25.9339 15.4226 25.9659 15.0604C26.0299 14.2301 26.086 13.3245 26.1339 12.3434C26.1819 10.8188 26.19 9.39999 26.1579 8.08678C26.1419 7.52829 26.1099 6.96226 26.062 6.38867C26.0299 5.81508 25.982 5.27924 25.918 4.78113C25.854 4.26793 25.7659 3.81509 25.6539 3.42264C25.558 3.01509 25.43 2.69811 25.27 2.4717ZM28.3898 13.4981C28.6457 13.9358 28.9177 14.3132 29.2056 14.6302C29.4936 14.932 29.7816 15.1886 30.0696 15.3999C30.3576 15.6113 30.6375 15.7773 30.9095 15.8981C31.1975 16.0189 31.4695 16.1094 31.7255 16.1698C32.3174 16.3207 32.9014 16.3358 33.4773 16.2151C34.0533 16.0642 34.5012 15.7622 34.8213 15.3094C35.1412 14.8566 35.3891 14.3433 35.5652 13.7698C35.6452 13.4981 35.6932 13.1509 35.7092 12.7283C35.7411 12.3056 35.6932 11.8981 35.5652 11.5056C35.4531 11.0981 35.2452 10.7433 34.9412 10.4415C34.6373 10.1245 34.1973 9.93588 33.6214 9.87546C33.2214 9.87546 32.7574 9.98109 32.2295 10.1924C31.7655 10.3735 31.2136 10.6755 30.5735 11.0981C29.9336 11.5056 29.2056 12.1169 28.3898 12.9321V13.4981ZM38.349 1.83774C38.8609 1.91321 39.3249 1.98113 39.7409 2.04152C40.1568 2.08679 40.5167 2.12453 40.8208 2.15472C41.1728 2.20001 41.4847 2.23773 41.7567 2.26793C42.0926 2.31321 42.5966 2.26038 43.2686 2.10944C43.9405 1.9434 44.6765 1.79246 45.4763 1.65661C46.2923 1.50566 47.1243 1.42265 47.9722 1.40755C48.8201 1.37737 49.5961 1.52075 50.3 1.83774C51.0039 2.15472 51.5799 2.4717 52.0279 2.78868C52.4758 3.10566 52.8278 3.44528 53.0838 3.80755C53.3558 4.15471 53.5477 4.52453 53.6597 4.91697C53.7718 5.30943 53.8358 5.73962 53.8517 6.20754C53.8358 6.90187 53.6597 7.57357 53.3237 8.22263C53.1797 8.49432 52.9877 8.78112 52.7478 9.08301C52.5238 9.36979 52.2438 9.64904 51.9078 9.92074C51.5719 10.1924 51.1719 10.449 50.7079 10.6906C50.26 10.9321 49.732 11.1434 49.1241 11.3246C49.716 11.4905 50.2041 11.6868 50.588 11.9132C50.988 12.1396 51.3079 12.3509 51.5479 12.5471C51.8359 12.7887 52.0519 13.0226 52.1959 13.249C52.3718 13.566 52.4918 13.8377 52.5558 14.0642C52.6198 14.2905 52.6598 14.5094 52.6758 14.7207C52.7078 14.9169 52.7478 15.1208 52.7958 15.3321C52.8438 15.5434 52.9477 15.7849 53.1078 16.0566C53.2357 16.2679 53.3877 16.4868 53.5638 16.7131C53.7237 16.9094 53.9077 17.1208 54.1157 17.3471C54.3396 17.5735 54.6116 17.7924 54.9317 18.0037C54.4836 18.0189 54.0676 18.0263 53.6837 18.0263C53.3158 18.0263 52.9958 18.0263 52.7238 18.0263C52.4039 18.0263 52.0998 18.0189 51.8119 18.0037C51.5239 17.9886 51.1639 17.9811 50.7319 17.9811C50.364 17.9811 49.8921 17.9811 49.316 17.9811C48.7561 17.9811 48.0762 17.9886 47.2763 18.0037C47.6282 17.7472 47.9162 17.4906 48.1402 17.2339C48.3641 16.9773 48.5402 16.7434 48.6682 16.5321C48.8122 16.2905 48.9161 16.0566 48.9802 15.8302C49.0601 15.4226 49.0681 15 49.0041 14.5622C48.9561 14.1849 48.8281 13.7698 48.6201 13.317C48.4122 12.8491 48.0762 12.3811 47.6122 11.9132C47.1483 11.9887 46.7563 12.0491 46.4363 12.0943C46.1324 12.1245 45.8683 12.1547 45.6443 12.1849C45.3884 12.2151 45.1804 12.2377 45.0204 12.2528C44.8764 12.2679 44.7164 12.283 44.5404 12.2981C44.3964 12.3132 44.2365 12.3358 44.0605 12.366C43.9005 12.3811 43.7486 12.4037 43.6045 12.4339C43.5725 13.083 43.5725 13.649 43.6045 14.132C43.6365 14.5999 43.6765 14.9924 43.7245 15.3094C43.7885 15.6868 43.8605 16.0113 43.9405 16.2829C44.0204 16.5546 44.1325 16.8188 44.2765 17.0754C44.3885 17.2867 44.5325 17.5132 44.7084 17.7547C44.8844 17.9811 45.0844 18.1698 45.3083 18.3207C44.8924 18.3207 44.4925 18.3207 44.1085 18.3207C43.7405 18.3207 43.4045 18.3132 43.1006 18.298C42.7486 18.298 42.4126 18.2905 42.0926 18.2755C41.7727 18.2603 41.4127 18.2528 41.0127 18.2528C40.6768 18.2528 40.2768 18.2528 39.8128 18.2528C39.3649 18.2528 38.8769 18.2603 38.349 18.2755C38.7649 17.8678 39.0929 17.5207 39.3328 17.2339C39.5729 16.9471 39.7568 16.7056 39.8849 16.5094C40.0288 16.2981 40.1169 16.117 40.1488 15.9661C40.1807 15.7245 40.2048 15.2943 40.2208 14.6754C40.2528 14.0415 40.2768 13.317 40.2928 12.5018C40.3088 11.6868 40.3168 10.834 40.3168 9.94337C40.3168 9.05281 40.3088 8.22263 40.2928 7.45282C40.2768 6.66792 40.2608 5.99622 40.2448 5.43773C40.2288 4.87924 40.2128 4.52453 40.1968 4.37359C40.1488 4.10188 40.0448 3.83019 39.8849 3.55849C39.7568 3.31698 39.5729 3.04528 39.3328 2.7434C39.0929 2.44151 38.7649 2.13962 38.349 1.83774ZM47.4203 9.80753C47.5802 9.71697 47.7162 9.6264 47.8282 9.53583C47.9402 9.44527 48.0362 9.30187 48.1162 9.10564C48.1961 8.89432 48.2601 8.59998 48.3082 8.22263C48.3722 7.84527 48.4441 7.33207 48.5241 6.68301C48.5881 6.03396 48.5402 5.4981 48.3801 5.07546C48.2361 4.65283 48.0362 4.32076 47.7802 4.07924C47.5402 3.82264 47.2682 3.64906 46.9643 3.55849C46.6762 3.45283 46.4203 3.4 46.1964 3.4C45.7483 3.4 45.3083 3.5283 44.8764 3.7849C44.4445 4.0415 44.1165 4.38868 43.8925 4.82641C43.8125 5.02263 43.7405 5.34716 43.6765 5.79999C43.6285 6.19245 43.5965 6.73584 43.5806 7.43018C43.5645 8.12451 43.5885 9.03772 43.6525 10.1698C44.2605 10.2604 44.7964 10.2981 45.2604 10.283C45.7243 10.2528 46.1163 10.2 46.4363 10.1245C46.8203 10.0491 47.1483 9.94337 47.4203 9.80753ZM61.0031 8.22263C61.4191 8.22263 61.851 8.29809 62.2991 8.44904C62.747 8.58489 63.1789 8.76602 63.5949 8.99244C64.0109 9.20376 64.3868 9.43771 64.7228 9.69432C65.0748 9.93588 65.3628 10.1698 65.5867 10.3962C65.9867 10.8037 66.2587 11.3547 66.4027 12.0491C66.5627 12.7283 66.5947 13.4302 66.4986 14.1547C66.4027 14.8641 66.1787 15.5359 65.8268 16.1698C65.4748 16.8038 64.9868 17.2717 64.3628 17.5735C63.9149 17.7849 63.4749 17.9509 63.043 18.0717C62.611 18.1924 62.1951 18.283 61.7951 18.3433C61.3951 18.4037 61.0191 18.434 60.6671 18.434C60.3152 18.434 60.0112 18.4264 59.7552 18.4113C59.2752 18.3811 58.7713 18.2226 58.2433 17.9358C57.7314 17.6491 57.2434 17.2943 56.7795 16.8716C56.3315 16.449 55.9476 15.9886 55.6275 15.4906C55.3076 14.9773 55.1156 14.4943 55.0516 14.0415C54.9557 13.4226 54.9396 12.7736 55.0036 12.0943C55.0676 11.4151 55.2996 10.7887 55.6996 10.2151C56.1156 9.64149 56.7395 9.16602 57.5715 8.78867C58.4194 8.41131 59.5633 8.22263 61.0031 8.22263ZM60.2112 17.0075C60.3872 17.0377 60.6271 17 60.9312 16.8943C61.2351 16.7735 61.5311 16.5849 61.8191 16.3283C62.123 16.0716 62.3871 15.7472 62.611 15.3547C62.851 14.9472 62.995 14.4566 63.043 13.883C63.091 13.3245 63.091 12.8113 63.043 12.3434C63.0109 11.8754 62.939 11.4679 62.827 11.1207C62.715 10.7584 62.587 10.4642 62.443 10.2377C62.2991 10.0113 62.147 9.85282 61.9871 9.76225C61.7151 9.6264 61.3871 9.52074 61.0031 9.44527C60.6192 9.3547 60.2912 9.36979 60.0193 9.49054C59.8913 9.55093 59.7313 9.67923 59.5393 9.87546C59.3473 10.0717 59.1553 10.3208 58.9632 10.6226C58.7713 10.9094 58.5953 11.2415 58.4354 11.6189C58.2914 11.9962 58.1874 12.3886 58.1234 12.7962C58.0594 13.2038 58.0434 13.6415 58.0753 14.1094C58.1234 14.5773 58.2274 15.0226 58.3873 15.4452C58.5474 15.8528 58.7713 16.2075 59.0593 16.5094C59.3632 16.7962 59.7473 16.9623 60.2112 17.0075ZM74.0821 8.22263C74.4981 8.22263 74.93 8.29809 75.378 8.44904C75.826 8.58489 76.2579 8.76602 76.6739 8.99244C77.0898 9.20376 77.4658 9.43771 77.8018 9.69432C78.1538 9.93588 78.4417 10.1698 78.6657 10.3962C79.0657 10.8037 79.3377 11.3547 79.4817 12.0491C79.6416 12.7283 79.6737 13.4302 79.5776 14.1547C79.4817 14.8641 79.2577 15.5359 78.9058 16.1698C78.5538 16.8038 78.0658 17.2717 77.4418 17.5735C76.9939 17.7849 76.5539 17.9509 76.122 18.0717C75.69 18.1924 75.274 18.283 74.874 18.3433C74.474 18.4037 74.0981 18.434 73.7461 18.434C73.3941 18.434 73.0902 18.4264 72.8342 18.4113C72.3542 18.3811 71.8503 18.2226 71.3223 17.9358C70.8104 17.6491 70.3224 17.2943 69.8585 16.8716C69.4105 16.449 69.0265 15.9886 68.7065 15.4906C68.3865 14.9773 68.1946 14.4943 68.1306 14.0415C68.0345 13.4226 68.0186 12.7736 68.0826 12.0943C68.1466 11.4151 68.3786 10.7887 68.7786 10.2151C69.1945 9.64149 69.8184 9.16602 70.6503 8.78867C71.4984 8.41131 72.6422 8.22263 74.0821 8.22263ZM73.2901 17.0075C73.4662 17.0377 73.7061 17 74.0102 16.8943C74.3141 16.7735 74.6101 16.5849 74.8981 16.3283C75.202 16.0716 75.4659 15.7472 75.69 15.3547C75.9299 14.9472 76.0739 14.4566 76.122 13.883C76.1699 13.3245 76.1699 12.8113 76.122 12.3434C76.0899 11.8754 76.018 11.4679 75.9059 11.1207C75.794 10.7584 75.666 10.4642 75.522 10.2377C75.378 10.0113 75.226 9.85282 75.0661 9.76225C74.7941 9.6264 74.4661 9.52074 74.0821 9.44527C73.6982 9.3547 73.3701 9.36979 73.0981 9.49054C72.9702 9.55093 72.8102 9.67923 72.6183 9.87546C72.4262 10.0717 72.2342 10.3208 72.0422 10.6226C71.8503 10.9094 71.6743 11.2415 71.5143 11.6189C71.3703 11.9962 71.2663 12.3886 71.2023 12.7962C71.1383 13.2038 71.1224 13.6415 71.1543 14.1094C71.2023 14.5773 71.3063 15.0226 71.4663 15.4452C71.6263 15.8528 71.8503 16.2075 72.1383 16.5094C72.4422 16.7962 72.8262 16.9623 73.2901 17.0075ZM81.2815 19C81.4415 18.7735 81.5695 18.5622 81.6655 18.366C81.7615 18.1698 81.8415 18.0037 81.9055 17.8678C81.9695 17.7019 82.0175 17.5509 82.0494 17.4151C82.0654 17.3245 82.0735 17.0604 82.0735 16.6226C82.0735 16.1848 82.0575 15.634 82.0254 14.9697C82.0094 14.3056 81.9854 13.5585 81.9535 12.7283C81.9375 11.8981 81.9055 11.0528 81.8574 10.1924C81.8255 9.33205 81.7855 8.49432 81.7375 7.67924C81.7055 6.86414 81.6735 6.13207 81.6415 5.48301C81.6095 4.81886 81.5775 4.27547 81.5455 3.85283C81.5135 3.43018 81.4895 3.18868 81.4735 3.12831C81.4415 3.03774 81.3855 2.94717 81.3055 2.8566C81.1456 2.67547 80.8736 2.50188 80.4895 2.33585C81.3055 2.13962 81.9295 1.98113 82.3614 1.86038C82.6174 1.8 82.8414 1.73963 83.0334 1.67925C83.2093 1.61887 83.3854 1.55849 83.5613 1.49812C83.7053 1.43774 83.8653 1.36982 84.0413 1.29434C84.2173 1.20377 84.3773 1.10566 84.5213 1C84.4413 1.43774 84.3773 1.86038 84.3292 2.26793C84.2813 2.67547 84.2413 3.05283 84.2093 3.4C84.1773 3.79245 84.1612 4.16981 84.1612 4.53207C84.0813 5.27169 84.0333 6.07924 84.0173 6.95471C84.0173 7.81508 84.0253 8.69055 84.0413 9.58111C84.0573 10.4717 84.0893 11.3396 84.1373 12.1849C84.1853 13.0301 84.2333 13.8 84.2813 14.4943C84.3453 15.1736 84.4013 15.7546 84.4493 16.2377C84.5132 16.7056 84.5612 17.0075 84.5933 17.1433C84.6573 17.3698 84.7212 17.5887 84.7852 17.8C84.8492 17.9811 84.9212 18.1698 85.0012 18.366C85.0812 18.5773 85.1772 18.7434 85.2892 18.8642H82.9614C82.7534 18.8642 82.5534 18.8716 82.3614 18.8867C82.1855 18.9019 82.0014 18.917 81.8095 18.932C81.6175 18.9471 81.4415 18.9698 81.2815 19ZM85.9132 2.56227C86.5691 2.63774 87.233 2.69057 87.905 2.72076C88.5929 2.75094 89.2169 2.76604 89.7769 2.76604C90.4328 2.76604 91.0727 2.75094 91.6966 2.72076C92.3367 2.70566 93.0086 2.67547 93.7125 2.63019C94.3205 2.6 95.0084 2.56227 95.7764 2.51698C96.5443 2.4717 97.3442 2.42642 98.1762 2.38113L98.3201 4.35094C98.3201 4.48679 98.3282 4.66037 98.3442 4.87169C98.3442 5.05283 98.3442 5.27924 98.3442 5.55093C98.3601 5.82264 98.3762 6.13962 98.3922 6.50188C97.8163 6.9698 97.2963 7.41508 96.8323 7.83773C96.3844 8.24527 96.0003 8.60753 95.6803 8.92452C95.2964 9.30187 94.9604 9.64904 94.6725 9.96602C94.3045 10.3735 93.9126 10.8717 93.4966 11.4604C93.0806 12.0339 92.6887 12.5999 92.3206 13.1585C91.9686 13.7018 91.6807 14.1924 91.4567 14.6302C91.2328 15.0528 91.1367 15.317 91.1688 15.4226C91.1847 15.498 91.3447 15.5434 91.6487 15.5584C91.9527 15.5584 92.3206 15.5433 92.7525 15.5132C93.2006 15.483 93.6885 15.4378 94.2165 15.3774C94.7605 15.3018 95.2644 15.2263 95.7284 15.1509C96.2083 15.0604 96.6323 14.9697 97.0003 14.8792C97.3682 14.7887 97.6083 14.6981 97.7202 14.6075C97.8642 14.4868 98.0242 14.2679 98.2002 13.9509C98.3601 13.6792 98.5362 13.3019 98.7282 12.8188C98.9362 12.3208 99.1681 11.6566 99.4241 10.8264C99.44 11.4452 99.4481 11.9735 99.4481 12.4113C99.4641 12.8491 99.4881 13.2189 99.52 13.5207C99.5361 13.8679 99.5601 14.1547 99.5921 14.3812C99.608 14.6226 99.6401 14.8943 99.688 15.1962C99.7201 15.4528 99.7601 15.7773 99.8081 16.1698C99.856 16.5622 99.92 17 100 17.483C98.8481 17.3471 97.8801 17.2566 97.0962 17.2113C96.3123 17.1509 95.6803 17.1132 95.2005 17.0981C94.6405 17.083 94.1925 17.083 93.8565 17.0981C93.5045 17.1433 93.0245 17.2113 92.4167 17.3018C91.9046 17.3773 91.2247 17.498 90.3768 17.6641C89.5289 17.815 88.4649 18.0189 87.1851 18.2755C87.153 17.9886 87.1211 17.7396 87.089 17.5283C87.0571 17.317 87.025 17.1282 86.9931 16.9623C86.9611 16.7962 86.9291 16.6377 86.8971 16.4868C86.8651 16.3509 86.8251 16.1623 86.777 15.9207C86.7451 15.7094 86.6891 15.4528 86.609 15.1509C86.5451 14.8339 86.4651 14.4414 86.3691 13.9735C87.3291 13.0377 88.121 12.2528 88.745 11.6189C89.3849 10.9698 89.8968 10.4415 90.2808 10.034C90.7288 9.55093 91.0807 9.16602 91.3368 8.87923C91.5767 8.59244 91.8887 8.24527 92.2727 7.83773C92.5926 7.49056 93.0086 7.06037 93.5206 6.54716C94.0325 6.01886 94.6484 5.39244 95.3683 4.66792C94.6325 4.63773 93.9445 4.63773 93.3046 4.66792C92.6806 4.69811 92.1366 4.74339 91.6727 4.80377C91.1288 4.86414 90.6248 4.94717 90.1608 5.05283C89.7288 5.17358 89.2888 5.36981 88.8409 5.6415C88.4569 5.86791 88.041 6.1849 87.593 6.59244C87.1451 6.99999 86.7211 7.52829 86.3211 8.17734C86.2891 7.67924 86.2651 7.25659 86.2491 6.90943C86.2332 6.56226 86.2171 6.27546 86.2011 6.04905C86.1851 5.79245 86.1692 5.58113 86.1531 5.41509C86.1531 5.24906 86.1371 5.03018 86.1052 4.75849C86.0731 4.53207 86.0412 4.24528 86.0091 3.89811C85.9772 3.53584 85.9451 3.09057 85.9132 2.56227Z" fill="url(#paint0_linear_129_4)"/>
<defs>
<linearGradient id="paint0_linear_129_4" x1="50.132" y1="1.50429" x2="50.132" y2="18.366" gradientUnits="userSpaceOnUse">
<stop stop-color="#DC0A0A"/>
<stop offset="0.776042" stop-color="#DC0A56" stop-opacity="0.85"/>
</linearGradient>
</defs>
</svg>
